<svg width="156" height="189" viewBox="0 0 156 189" fill="none" xmlns="http://www.w3.org/2000/svg">
<g clip-path="url(#clip0_11337_1269)">
<path d="M141.25 84.127C149.396 84.127 156 77.5232 156 69.377C156 61.2308 149.396 54.627 141.25 54.627C133.104 54.627 126.5 61.2308 126.5 69.377C126.5 77.5232 133.104 84.127 141.25 84.127Z" fill="white"/>
<path d="M89.1131 140.044L82.0391 157.919L59.2151 172.836C57.0471 174.068 55.5811 176.395 55.5811 179.066C55.5811 183.024 58.7891 186.233 62.7481 186.233C64.2831 186.233 65.7031 185.746 66.8691 184.923C70.6301 182.552 89.2201 170.839 92.3641 169.043C95.8641 167.043 96.4891 163.918 96.4891 163.918L101.364 147.918C101.364 147.918 101.364 147.918 95.6141 145.293C89.8641 142.668 89.1131 140.044 89.1131 140.044Z" fill="white"/>
<path d="M139.321 141.962C139.321 141.962 138.163 138.128 134.742 136.795C131.321 135.462 116.655 129.045 116.655 129.045L132.071 103.461C132.071 103.461 135.905 94.461 131.738 90.044C127.571 85.627 117.988 80.294 117.988 80.294H110.467L126.266 53.493C129.62 47.807 127.709 40.412 122.024 37.061L72.6331 7.947C66.9471 4.595 59.5541 6.505 56.2021 12.191L9.14406 92.019C5.79306 97.704 7.70206 105.099 13.3881 108.451L62.7781 137.564C68.4641 140.916 75.8591 139.005 79.2101 133.322L102.144 94.419H110.24L95.4901 120.628C95.4901 120.628 90.3561 129.842 95.1561 134.878C99.3651 139.294 107.823 141.794 107.823 141.794L125.073 148.295L130.174 179.586L130.183 179.585C130.732 182.998 133.682 185.608 137.25 185.608C141.208 185.608 144.416 182.399 144.416 178.441C144.416 178.252 144.402 178.066 144.388 177.881L144.416 177.877L139.321 141.962ZM17.9581 100.698C16.5571 99.872 16.0711 97.99 16.8971 96.59L63.9561 16.761C64.7821 15.36 66.6631 14.873 68.0631 15.699L79.5841 22.491L29.4801 107.489L17.9581 100.698ZM71.4561 128.752C70.6301 130.152 68.7491 130.639 67.3491 129.813L37.2331 112.059L87.3401 27.063L117.453 44.816C118.855 45.642 119.34 47.523 118.515 48.923L100.022 80.295H91.2391L71.3231 94.722C70.8811 94.974 70.4701 95.275 70.0931 95.613L70.0621 95.635L70.0641 95.638C68.6191 96.95 67.7061 98.836 67.7061 100.942C67.7061 104.9 70.9141 108.109 74.8731 108.109C76.4211 108.109 77.8511 107.613 79.0221 106.778L79.0241 106.781L79.0951 106.723C79.2771 106.59 79.4511 106.45 79.6191 106.3L89.2791 98.516L71.4561 128.752Z" fill="white"/>
<path d="M49.2189 6.44296L2.16091 86.272C-1.19009 91.957 0.718907 99.352 6.40491 102.704L55.7949 131.817C61.4809 135.169 68.8759 133.258 72.2269 127.575L119.284 47.746C122.638 42.06 120.727 34.665 115.042 31.314L65.6499 2.19996C59.9649 -1.15204 52.5709 0.757962 49.2189 6.44296ZM9.91391 90.843L56.9729 11.014C57.7989 9.61296 59.6799 9.12596 61.0799 9.95196L72.6009 16.744L22.4959 101.742L10.9739 94.951C9.57391 94.125 9.08791 92.243 9.91391 90.843ZM111.531 43.176L64.4719 123.005C63.6459 124.405 61.7649 124.892 60.3649 124.066L30.2489 106.312L80.3549 21.316L110.468 39.069C111.871 39.894 112.355 41.775 111.531 43.176Z" fill="#F0C42E"/>
<path d="M135.25 78.333C143.396 78.333 150 71.7292 150 63.583C150 55.4368 143.396 48.833 135.25 48.833C127.104 48.833 120.5 55.4368 120.5 63.583C120.5 71.7292 127.104 78.333 135.25 78.333Z" fill="#3A3A3A"/>
<path d="M81.875 134.25L74.801 152.125L51.976 167.042C49.808 168.274 48.342 170.601 48.342 173.272C48.342 177.23 51.55 180.439 55.509 180.439C57.044 180.439 58.464 179.952 59.63 179.129C63.391 176.758 81.981 165.045 85.125 163.249C88.625 161.249 89.25 158.124 89.25 158.124L94.125 142.124C94.125 142.124 94.125 142.124 88.375 139.499C82.625 136.874 81.875 134.25 81.875 134.25Z" fill="#3A3A3A"/>
<path d="M132.615 136.668C132.615 136.668 131.457 132.834 128.036 131.501C124.615 130.168 109.949 123.751 109.949 123.751L125.365 98.167C125.365 98.167 129.199 89.167 125.032 84.75C120.865 80.333 111.282 75 111.282 75H84.532L64.617 89.427C64.175 89.68 63.764 89.98 63.387 90.318L63.356 90.34L63.358 90.343C61.913 91.654 61 93.541 61 95.646C61 99.604 64.208 102.813 68.167 102.813C69.715 102.813 71.145 102.317 72.316 101.482L72.318 101.485L72.389 101.427C72.571 101.294 72.746 101.154 72.914 101.004L87.657 89.123H103.532L88.782 115.332C88.782 115.332 83.648 124.546 88.448 129.582C92.657 133.998 101.115 136.498 101.115 136.498L118.365 142.999L123.466 174.29L123.475 174.289C124.024 177.702 126.974 180.312 130.542 180.312C134.5 180.312 137.708 177.103 137.708 173.145C137.708 172.956 137.694 172.77 137.68 172.585L137.708 172.581L132.615 136.668Z" fill="#3A3A3A"/>
</g>
<defs>
<clipPath id="clip0_11337_1269">
<rect width="156" height="188" fill="white" transform="translate(0 0.5)"/>
</clipPath>
</defs>
</svg>
